#N canvas 387 545 450 350 10;
#X text 16 34 LICENSE SIBSD;
#X text 16 142 LIBRARY nilwind;
#X text 16 124 OUTLET_0 signal;
#X text 16 70 INLET_0 signal message;
#X text 16 16 KEYWORDS signal message MAX MSP cyclone;
#X text 16 52 DESCRIPTION partial clone of MAX/MSP 4 objects, previously called 
cyclone;
#X text 16 88 INLET_1 float signal;
#X text 16 106 INLET_2 float signal;
#X text 16 160 VERSION 0.2.3;
#X text 15 178 AUTHOR Krzysztof Czaja;
#X text 16 196 RELEASE_DATE 2002;
#X text 16 215 WEBSITE http://suita.chopin.edu.pl/~czaja/miXed/externs/cyclone.html
;
#X text 16 247 REPOSITORY https://github.com/electrickery/pd-nilwind;
#X text 10 269 MAINTAINER fjkraan@electrickery.nl;
#X text 16 291 HELP_PATCH_AUTHORS Christoph Kummerer. Revised by Jonathan
Wilkes for Pd-extended 0.42 to conform to the PDDP template. Alex Cleveland
updated the help patches for Pd-l2ork version 2013.05.28. Fred Jan Kraan
adapted the help patches to pd-extended 2014-12-03; 
