#N canvas 183 83 569 594 10;
#X declare -lib nettles;
#X text 106 190 sigeq - outlet is 1 when inlets are equal as floats
;
#X text 107 164 sigeq - outlet is 1 when inlets are equal as ints?
;
#X msg 23 140 _algo n;
#X text 120 141 switch mode: 0 \, 1 \, 2;
#X text 106 114 rdiv : output = right inlet / left inlet;
#X text 105 91 rminus : output = right inlet - left inlet;
#X text 107 241 signeq : output = 1 when inlets are unequal;
#X text 107 266 siglt : output = 1 when left inlet is larger than right
;
#X text 103 521 sigaccum : is the accumulation of all previous samples
;
#X text 109 409 sigrover : outlet is the remainder of the left inlet
divided by the right inlet;
#X text 109 442 sigmod : outlet is the right inlet divided through
the left inlet;
#X text 108 379 sigrminus : outlet = 1 when inlets are unequal;
#X text 108 350 siggeq : outlet = 1 when left inlet is greater or equal
than right;
#X text 108 321 sigleq : outlet = 1 when left inlet is less or equal
than right;
#X text 107 289 siggt : outlet = 1 when left inlet is greater than
right;
#X obj 22 503 bng 15 250 50 0 empty empty empty 17 7 0 10 -262144 -1
-1;
#X msg 21 482 set 0;
#X text 102 481 set sum to a value;
#X text 104 502 set sum to 0;
#X obj 0 557 cnv 15 552 21 empty empty empty 20 12 0 14 -233017 -33289
0;
#N canvas 319 385 428 109 Related_objects 0;
#X obj 0 0 cnv 15 425 20 empty empty empty 3 12 0 14 -204280 -1 0;
#X text 6 1 Related Objects;
#X restore 205 559 pd Related_objects;
#X obj 0 0 cnv 15 552 40 empty empty nettles 3 12 0 18 -204280 -1 0
;
#X text 107 214 sigeq - fast compare \, 8 samples at once;
#N canvas 616 258 377 299 META 0;
#X text 0 20 LICENSE SIBSD;
#X text 0 100 LIBRARY nilwind;
#X text 0 80 OUTLET_0 signal;
#X text 1 121 VERSION 0.2-beta1;
#X text 1 139 AUTHOR Krzysztof Czaja;
#X text 2 157 RELEASE_DATE 2002;
#X text 3 176 WEBSITE http://suita.chopin.edu.pl/~czaja/miXed/externs/cyclone.html
;
#X text 3 208 HELP_PATCH_AUTHORS Christoph Kummerer. Revised by Jonathan
Wilkes for Pd-extended 0.42 to conform to the PDDP template. Alex Cleveland
updated this patch for Pd-l2ork version 2013.05.28. Fred Jan Kraan
adapted the patch to pd-extended 2015-02-02;
#X text 0 40 DESCRIPTION apply binary operations;
#X text 0 60 INLET_0 float signal message;
#X text 0 0 KEYWORDS bin ops for control messages and signals;
#X restore 503 559 pd META;
#N canvas 110 125 1114 741 signal 0;
#X obj 390 103 sig~;
#X obj 453 103 sig~;
#X obj 392 183 tgl 15 0 empty empty empty 17 7 0 10 -262144 -1 -1 0
1;
#X obj 390 75 hradio 15 1 0 3 empty empty empty 0 -8 0 10 -262144 -1
-1 2;
#X obj 453 75 hradio 15 1 0 3 empty empty empty 0 -8 0 10 -262144 -1
-1 2;
#X obj 22 273 sig~;
#X obj 79 273 sig~;
#X obj 24 353 tgl 15 0 empty empty empty 17 7 0 10 -262144 -1 -1 0
1;
#X obj 22 245 hradio 15 1 0 3 empty empty empty 0 -8 0 10 -262144 -1
-1 0;
#X obj 79 245 hradio 15 1 0 3 empty empty empty 0 -8 0 10 -262144 -1
-1 1;
#X obj 394 273 sig~;
#X obj 451 273 sig~;
#X obj 396 353 tgl 15 0 empty empty empty 17 7 0 10 -262144 -1 -1 0
1;
#X obj 394 245 hradio 15 1 0 3 empty empty empty 0 -8 0 10 -262144
-1 -1 1;
#X obj 451 245 hradio 15 1 0 3 empty empty empty 0 -8 0 10 -262144
-1 -1 0;
#X obj 14 436 sig~;
#X obj 77 436 sig~;
#X obj 16 517 tgl 15 0 empty empty empty 17 7 0 10 -262144 -1 -1 0
1;
#X obj 14 408 hradio 15 1 0 3 empty empty empty 0 -8 0 10 -262144 -1
-1 2;
#X obj 77 408 hradio 15 1 0 3 empty empty empty 0 -8 0 10 -262144 -1
-1 0;
#X obj 394 434 sig~;
#X obj 458 434 sig~;
#X obj 396 515 tgl 15 0 empty empty empty 17 7 0 10 -262144 -1 -1 0
1;
#X obj 394 406 hradio 15 1 0 3 empty empty empty 0 -8 0 10 -262144
-1 -1 1;
#X obj 458 406 hradio 15 1 0 3 empty empty empty 0 -8 0 10 -262144
-1 -1 2;
#X obj 763 103 sig~;
#X obj 827 103 sig~;
#X obj 763 75 hradio 15 1 0 3 empty empty empty 0 -8 0 10 -262144 -1
-1 2;
#X obj 827 75 hradio 15 1 0 3 empty empty empty 0 -8 0 10 -262144 -1
-1 0;
#X text 389 53 signeq : outlet = 1 when inlets are unequal;
#X text 20 219 siglt : outlet = 1 when left inlet is less than right
;
#X text 391 214 siggt : outlet = 1 when left inlet is greater than
right;
#X text 9 377 sigleq : outlet = 1 when left inlet is less or equal
than right;
#X text 389 376 siggeq : outlet = 1 when left inlet is greater or equal
than right;
#X obj 394 603 sig~;
#X obj 451 603 sig~;
#X floatatom 451 582 5 0 0 0 - - -;
#X floatatom 394 582 5 0 0 0 - - -;
#X text 390 543 sigrover : outlet is the remainder of the left inlet
divided by the right inlet;
#X floatatom 396 686 5 0 0 0 - - -;
#X obj 10 603 sig~;
#X obj 73 603 sig~;
#X floatatom 73 582 5 0 0 0 - - -;
#X floatatom 10 582 5 0 0 0 - - -;
#X floatatom 12 686 5 0 0 0 - - -;
#X text 4 542 sigmod : outlet is the right inlet divided through the
left inlet;
#X obj 777 621 sig~;
#X floatatom 779 704 8 0 0 0 - - -;
#X obj 777 571 hradio 15 1 1 5 empty empty empty 0 -8 0 10 -262144
-1 -1 2;
#X obj 777 591 - 2;
#X text 856 570 2;
#X text 760 570 -2;
#X text 772 545 sigaccum : is the accumulation of all previous samples
;
#X obj 819 625 bng 15 250 50 0 empty empty empty 17 7 0 10 -262144
-1 -1;
#X msg 842 625 set 42;
#X obj 0 0 cnv 15 552 40 empty empty empty 3 12 0 18 -204280 -1 0;
#X floatatom 765 183 5 0 0 0 - - -;
#X text 759 52 sigrminus : outlet = left inlet minus right inlet;
#X obj 777 467 dspSwitch~;
#X obj 86 115 sig~;
#X obj 149 115 sig~;
#X floatatom 149 94 5 0 0 0 - - -;
#X floatatom 86 94 5 0 0 0 - - -;
#X msg 17 74 _algo 0;
#X msg 18 94 _algo 1;
#X msg 18 117 _algo 2;
#X obj 88 195 tgl 15 0 empty empty empty 17 7 0 10 -262144 -1 -1 0
1;
#X text 13 52 sigeq : outlet = 1 when inlets are equal;
#X text 200 98 alternate objects:;
#X text 18 20 signal_operators;
#X obj 87 146 nilwind/==~;
#X obj 24 329 nilwind/Snapshot~ 100;
#X obj 88 171 nilwind/Snapshot~ 100;
#X obj 23 304 nilwind/<~;
#X obj 15 467 nilwind/<=~;
#X obj 16 492 nilwind/Snapshot~ 100;
#X obj 11 634 nilwind/!/~;
#X obj 12 659 nilwind/Snapshot~ 100;
#X obj 395 634 nilwind/%~;
#X obj 396 660 nilwind/Snapshot~ 100;
#X obj 396 490 nilwind/Snapshot~ 100;
#X obj 395 465 nilwind/>=~;
#X obj 396 329 nilwind/Snapshot~ 100;
#X obj 395 304 nilwind/>~;
#X obj 392 159 nilwind/Snapshot~ 100;
#X obj 391 134 nilwind/!=~;
#X obj 764 134 nilwind/!-~;
#X obj 765 159 nilwind/Snapshot~ 100;
#X obj 778 652 nilwind/+=~;
#X obj 779 677 nilwind/Snapshot~ 100;
#X obj 223 117 nilwind/_==1~;
#X obj 223 139 nilwind/_==2~;
#X connect 0 0 85 0;
#X connect 1 0 85 1;
#X connect 3 0 0 0;
#X connect 4 0 1 0;
#X connect 5 0 73 0;
#X connect 6 0 73 1;
#X connect 8 0 5 0;
#X connect 9 0 6 0;
#X connect 10 0 83 0;
#X connect 11 0 83 1;
#X connect 13 0 10 0;
#X connect 14 0 11 0;
#X connect 15 0 74 0;
#X connect 16 0 74 1;
#X connect 18 0 15 0;
#X connect 19 0 16 0;
#X connect 20 0 81 0;
#X connect 21 0 81 1;
#X connect 23 0 20 0;
#X connect 24 0 21 0;
#X connect 25 0 86 0;
#X connect 26 0 86 1;
#X connect 27 0 25 0;
#X connect 28 0 26 0;
#X connect 34 0 78 0;
#X connect 35 0 78 1;
#X connect 36 0 35 0;
#X connect 37 0 34 0;
#X connect 40 0 76 0;
#X connect 41 0 76 1;
#X connect 42 0 41 0;
#X connect 43 0 40 0;
#X connect 46 0 88 0;
#X connect 48 0 49 0;
#X connect 49 0 46 0;
#X connect 53 0 88 0;
#X connect 54 0 88 0;
#X connect 59 0 70 0;
#X connect 60 0 70 1;
#X connect 61 0 60 0;
#X connect 62 0 59 0;
#X connect 63 0 70 0;
#X connect 64 0 70 0;
#X connect 65 0 70 0;
#X connect 70 0 72 0;
#X connect 71 0 7 0;
#X connect 72 0 66 0;
#X connect 73 0 71 0;
#X connect 74 0 75 0;
#X connect 75 0 17 0;
#X connect 76 0 77 0;
#X connect 77 0 44 0;
#X connect 78 0 79 0;
#X connect 79 0 39 0;
#X connect 80 0 22 0;
#X connect 81 0 80 0;
#X connect 82 0 12 0;
#X connect 83 0 82 0;
#X connect 84 0 2 0;
#X connect 85 0 84 0;
#X connect 86 0 87 0;
#X connect 87 0 56 0;
#X connect 88 0 89 0;
#X connect 89 0 47 0;
#X restore 425 177 pd signal ops;
#N canvas 804 350 450 414 control 0;
#X obj 0 0 cnv 15 552 40 empty empty empty 3 12 0 18 -204280 -1 0;
#X text 8 19 control message operators;
#X msg 35 106 1;
#X msg 126 105 1;
#X msg 136 126 2;
#X msg 116 84 0;
#X msg 51 277 1;
#X msg 142 276 1;
#X msg 152 297 2;
#X msg 132 255 -1;
#X msg 51 253 2;
#X msg 33 80 -1;
#X text 28 55 rminus : output = right inlet - left inlet;
#X text 25 219 rdiv : output = right inlet / left inlet;
#X floatatom 59 176 5 0 0 0 - - -;
#X floatatom 75 347 5 0 0 0 - - -;
#X obj 59 149 nilwind/!-;
#X obj 75 320 nilwind/!/;
#X connect 2 0 16 0;
#X connect 3 0 16 1;
#X connect 4 0 16 1;
#X connect 5 0 16 1;
#X connect 6 0 17 0;
#X connect 7 0 17 1;
#X connect 8 0 17 1;
#X connect 9 0 17 1;
#X connect 10 0 17 0;
#X connect 11 0 16 0;
#X connect 16 0 14 0;
#X connect 17 0 15 0;
#X restore 424 103 pd control ops;
#X obj 413 44 declare -lib nettles;
#X text 12 23 logical operators;
#X obj 23 91 nilwind/!-;
#X obj 23 115 nilwind/!/;
#X obj 23 165 nilwind/==~;
#X obj 24 240 nilwind/!=~;
#X obj 23 265 nilwind/<~;
#X obj 23 290 nilwind/>~;
#X obj 23 321 nilwind/<=~;
#X obj 23 350 nilwind/>=~;
#X obj 23 380 nilwind/!-~;
#X obj 23 409 nilwind/!/~;
#X obj 23 443 nilwind/%~;
#X obj 23 523 nilwind/+=~;
#X obj 23 190 nilwind/_==1~;
#X obj 24 214 nilwind/_==2~;
#X connect 2 0 30 0;
#X connect 15 0 39 0;
#X connect 16 0 39 0;
